<?xml version="1.0" standalone="no"?>
<!DOCTYPE svg PUBLIC "-//W3C//DTD SVG 20010904//EN"
 "http://www.w3.org/TR/2001/REC-SVG-20010904/DTD/svg10.dtd">
<svg version="1.0" xmlns="http://www.w3.org/2000/svg"
 width="500.000000pt" height="500.000000pt" viewBox="0 0 500.000000 500.000000"
 preserveAspectRatio="xMidYMid meet">

<g transform="translate(0.000000,500.000000) scale(0.100000,-0.100000)"
fill="#000000" stroke="none">
<path d="M0 2500 l0 -2500 2500 0 2500 0 0 2500 0 2500 -2500 0 -2500 0 0
-2500z m1008 815 c24 -10 104 -84 225 -205 103 -104 187 -193 187 -197 -1 -15
-55 -71 -94 -97 -21 -14 -51 -26 -66 -26 -35 0 -94 44 -155 114 -76 89 -149
116 -237 87 -41 -13 -271 -241 -287 -284 -15 -40 -14 -92 4 -134 21 -49 219
-250 270 -274 86 -40 152 -18 245 80 36 37 73 73 84 78 18 10 18 11 1 37 -10
14 -22 26 -27 26 -6 0 -46 -38 -91 -85 -83 -87 -117 -106 -164 -88 -32 12
-242 219 -254 250 -20 53 2 91 125 211 106 104 117 112 153 112 51 -1 69 -13
152 -101 90 -97 117 -111 174 -92 25 9 55 12 76 8 32 -6 38 -2 97 58 48 50 66
62 74 53 26 -32 -44 -116 -97 -116 -14 0 -14 -2 1 -19 22 -24 45 -87 46 -123
l0 -28 -110 0 c-120 0 -135 -9 -84 -49 33 -26 84 -27 115 -2 20 16 26 17 44 6
11 -7 34 -16 52 -20 l31 -6 7 73 c3 40 5 96 3 123 l-3 50 38 3 c32 3 37 1 37
-19 0 -21 1 -21 18 -6 10 9 33 20 50 23 31 6 32 6 32 -30 0 -32 -3 -36 -25
-36 -14 0 -37 -11 -50 -25 -22 -21 -25 -33 -25 -92 l0 -68 41 1 c28 1 48 -5
59 -16 10 -10 24 -20 31 -22 19 -7 -46 -76 -89 -95 -50 -21 -91 -3 -150 64
-49 56 -49 56 -81 42 -17 -8 -31 -16 -31 -19 0 -4 16 -21 35 -40 l35 -34 -178
-180 c-97 -100 -194 -193 -214 -209 -53 -40 -130 -47 -190 -19 -58 29 -581
552 -603 605 -21 51 -19 113 6 164 23 48 537 555 592 585 40 22 116 23 165 3z
m993 -465 c36 -20 13 -76 -28 -68 -22 4 -29 43 -13 64 15 17 16 17 41 4z m353
-6 c19 -18 19 -20 6 -45 -6 -10 -19 -19 -28 -19 -39 0 -57 50 -24 69 23 14 28
14 46 -5z m-85 -3 c8 -5 11 -16 6 -31 -6 -18 -12 -21 -36 -16 -34 6 -59 -14
-59 -50 0 -21 4 -24 41 -24 36 0 40 -2 37 -22 -2 -19 -10 -24 -40 -26 l-38 -3
0 -115 0 -114 -30 0 -30 0 0 115 c0 108 -1 115 -20 115 -15 0 -20 7 -20 25 0
18 5 25 20 25 16 0 20 7 20 36 0 51 45 94 97 94 21 0 44 -4 52 -9z m1536 -145
l100 -133 5 131 5 131 33 3 32 3 0 -195 0 -196 -33 0 c-30 0 -40 10 -135 137
l-102 137 0 -137 0 -137 -35 0 -35 0 0 188 c0 104 3 192 7 195 3 4 18 7 32 7
22 0 43 -22 126 -134z m535 104 l0 -29 -97 -3 -98 -3 -3 -52 -3 -53 90 0 91 0
0 -30 0 -29 -87 -3 -88 -3 -3 -77 -3 -78 -29 0 -30 0 0 195 0 195 130 0 130 0
0 -30z m320 0 l0 -30 -60 0 -60 0 0 -165 0 -165 -35 0 -35 0 0 165 0 165 -60
0 -60 0 0 30 0 30 155 0 155 0 0 -30z m-2860 -35 c0 -34 16 -45 68 -45 19 0
23 -5 20 -22 -2 -19 -10 -24 -45 -26 l-43 -3 0 -47 c0 -26 3 -64 7 -85 6 -37
7 -39 40 -35 29 3 34 1 40 -20 3 -15 1 -27 -8 -33 -25 -16 -93 -10 -119 11
-24 18 -25 24 -25 114 0 88 -2 95 -20 98 -29 4 -33 48 -6 55 16 4 21 13 21 37
0 41 3 44 40 38 26 -4 30 -8 30 -37z m1362 -2 c3 -37 4 -38 46 -41 37 -3 42
-6 42 -28 0 -22 -4 -24 -45 -24 l-45 0 0 -62 c0 -97 6 -111 47 -106 29 3 34 1
40 -20 7 -31 -9 -42 -64 -42 -65 0 -83 30 -83 141 0 82 -2 89 -20 89 -15 0
-20 7 -20 25 0 18 5 25 20 25 17 0 20 7 20 40 0 38 2 40 29 40 27 0 30 -3 33
-37z m-501 -49 c31 -16 37 -35 15 -53 -10 -8 -20 -8 -42 4 -46 24 -82 19 -116
-15 -27 -27 -30 -36 -25 -71 10 -76 67 -106 137 -71 37 18 40 18 55 2 14 -15
13 -19 -10 -40 -34 -32 -127 -40 -174 -16 -84 44 -97 182 -23 249 42 38 121
43 183 11z m273 12 c57 -24 66 -47 66 -173 l0 -113 -30 0 c-20 0 -30 5 -30 16
0 14 -2 14 -22 0 -13 -9 -43 -16 -71 -16 -40 0 -53 5 -78 29 -72 73 -12 151
116 151 59 0 70 13 39 44 -18 19 -85 21 -116 5 -16 -9 -24 -8 -36 5 -20 20 -9
32 44 51 50 18 77 18 118 1z m578 -7 c31 -17 58 -70 58 -116 l0 -42 -112 -3
-113 -3 32 -32 c36 -38 83 -44 122 -17 21 15 24 15 43 -3 19 -20 19 -20 -9
-38 -39 -26 -131 -32 -172 -11 -84 44 -97 182 -23 249 39 36 122 44 174 16z
m-1492 -134 l0 -145 -35 0 -35 0 0 145 0 145 35 0 35 0 0 -145z m340 0 l0
-145 -30 0 -30 0 0 145 0 145 30 0 30 0 0 -145z"/>
<path d="M1256 2659 c-47 -37 -35 -49 49 -49 82 0 94 11 55 50 -26 26 -70 26
-104 -1z"/>
<path d="M2812 2558 c-32 -32 -5 -68 50 -68 43 0 78 27 78 60 0 18 -7 20 -58
20 -32 0 -63 -5 -70 -12z"/>
<path d="M3371 2654 c-12 -15 -21 -31 -21 -35 0 -5 38 -9 85 -9 76 0 84 2 78
18 -13 37 -36 52 -79 52 -34 0 -47 -5 -63 -26z"/>
</g>
</svg>
